<svg width="18" height="18" viewBox="0 0 18 18" fill="none" xmlns="http://www.w3.org/2000/svg">
<path d="M16.3601 0.359985H1.63559C0.931426 0.359985 0.359985 0.917985 0.359985 1.60511V16.3932C0.359985 17.0813 0.931426 17.64 1.63559 17.64H16.3601C17.0647 17.64 17.64 17.0813 17.64 16.3932V1.60511C17.64 0.917985 17.0647 0.359985 16.3601 0.359985ZM5.48495 15.0849H2.92079V6.83879H5.48495V15.0849ZM4.20287 5.71127C4.00769 5.71127 3.81443 5.67281 3.63413 5.59809C3.45383 5.52337 3.29001 5.41386 3.15205 5.2758C3.01408 5.13775 2.90468 4.97387 2.83007 4.79351C2.75547 4.61316 2.71714 4.41988 2.71727 4.22471C2.71727 3.83073 2.87377 3.45289 3.15235 3.17431C3.43093 2.89573 3.80877 2.73923 4.20275 2.73923C4.59672 2.73923 4.97456 2.89573 5.25314 3.17431C5.53172 3.45289 5.68823 3.83073 5.68823 4.22471C5.68823 4.61876 5.53177 4.99669 5.25325 5.27544C4.97472 5.55419 4.59692 5.71095 4.20287 5.71127ZM15.084 15.0849H12.5239V11.075C12.5239 10.1184 12.5052 8.88839 11.1917 8.88839C9.85775 8.88839 9.65447 9.93023 9.65447 11.0057V15.0852H7.09247V6.83879H9.55127V7.96487H9.58631C9.92855 7.31687 10.7647 6.63311 12.0117 6.63311C14.6052 6.63311 15.0842 8.34047 15.0842 10.5617V15.0849H15.084Z" fill="white"/>
</svg>
