
<svg width="123" height="27" viewBox="0 0 123 27" fill="none" xmlns="http://www.w3.org/2000/svg">
<path d="M42.0014 6.629H39.5619C39.4592 6.629 39.3736 6.74083 39.3564 6.84406L38.0211 13.1239C38.2009 13.7347 38.3806 14.3626 38.4149 14.5175C38.432 14.5863 38.1238 14.2422 37.6274 13.6486C37.6017 13.64 37.5845 13.6228 37.5674 13.6056L31.7639 6.77524C31.6526 6.6376 31.43 6.69782 31.3958 6.86987L28.7165 19.8252C28.6909 19.9629 28.7936 20.264 28.922 20.264H31.3615C31.4643 20.264 31.5499 20.0145 31.567 19.9199L32.9109 13.4766C32.6541 12.7454 32.3288 11.7991 32.286 11.6098C32.2346 11.3862 35.5559 15.524 37.7472 18.2682L39.1424 19.8596C39.2623 19.9973 39.4763 19.9285 39.5105 19.7564L42.2154 6.93009C42.2411 6.80105 42.1384 6.629 42.0014 6.629Z" fill="white"/>
<path d="M54.6271 6.629H46.1871C46.0844 6.629 45.9988 6.73223 45.9817 6.83546L43.3024 19.7994C43.2767 19.9371 43.3795 20.2554 43.5079 20.2554H52.0591C52.1619 20.2554 52.2475 20.0059 52.2646 19.9027L52.7696 17.5112C52.7953 17.3735 52.6926 17.2961 52.5642 17.2961H46.9832C46.8462 17.2961 46.7435 17.038 46.7777 16.9004L47.103 15.3003C46.7948 15.2143 46.5552 15.1025 46.4696 15.0767C46.2384 14.9992 50.039 14.9476 52.1019 14.939C52.1105 14.9218 52.1191 14.896 52.1276 14.8788L52.6412 12.6508C52.6669 12.5131 52.5727 12.5561 52.4358 12.5561H48.0275C47.8905 12.5561 47.7878 12.255 47.822 12.126L48.2414 10.0012C47.7963 9.87214 47.4111 9.7173 47.2999 9.67428C46.9832 9.57105 54.1991 9.54525 54.1991 9.54525L53.9252 9.59686H54.1392C54.2419 9.59686 54.3275 9.51084 54.3446 9.41621L54.8668 6.93869C54.8668 6.79245 54.764 6.629 54.6271 6.629Z" fill="white"/>
<path d="M62.7934 6.5174C60.2854 6.5174 57.94 8.29811 57.2809 11.4982L55.5604 19.8083C55.5347 19.9459 55.6374 20.247 55.7658 20.247H58.2053C58.3081 20.247 58.3937 19.9975 58.4108 19.8943L58.9501 17.391C58.9672 17.2877 59.0613 17.2791 59.1555 17.2791H62.6308C62.7677 17.2791 62.8705 17.2533 62.8362 17.391L62.3312 19.8771C62.3055 20.0147 62.4082 20.2384 62.5366 20.2384H64.9762C65.0789 20.2384 65.1645 19.9889 65.1816 19.8943L66.9278 11.5843C67.6041 8.38414 65.2843 6.5174 62.7934 6.5174ZM64.026 11.6531L63.5381 13.7349C63.521 13.8381 63.4268 13.7263 63.3327 13.7263H60.1741C59.8146 14.9134 59.4208 15.1199 59.3267 15.2575C59.1812 15.4726 59.1641 15.55 59.652 13.7521C59.652 13.7435 59.652 13.7779 59.652 13.7693L60.1227 11.6273C60.4223 10.1821 61.3468 9.40784 62.5281 9.40784C63.6494 9.40784 64.3085 10.2165 64.026 11.6531Z" fill="white"/>
<path d="M75.8555 6.629H71.6527C71.5499 6.629 71.4643 6.74083 71.4472 6.84406L68.768 19.7908C68.7423 19.9285 68.845 20.2468 68.9734 20.2468H71.413C71.5157 20.2468 71.6013 19.9973 71.6184 19.8941L72.1577 17.3907C72.1748 17.2875 72.269 17.2789 72.3631 17.2789H73.8611H74.2035C74.2891 17.2789 74.3661 17.1843 74.4004 17.2617L75.4618 19.9973C75.496 20.0747 75.5731 20.2382 75.6587 20.2382H78.1496C78.3036 20.2382 78.4064 19.9027 78.3464 19.765L77.0111 16.2896C76.9683 16.195 77.0111 16.0401 77.0967 15.9799C78.6375 15.0422 79.7417 13.4508 79.9899 11.7303C80.4436 8.80543 78.2951 6.629 75.8555 6.629ZM77.1138 11.6615C76.8485 12.926 75.6159 13.7347 74.3918 13.7347H73.3389C72.9623 14.9218 72.5429 15.2143 72.4487 15.3605C72.3289 15.5412 72.697 14.182 72.988 13.1067L73.7156 9.70009C73.7327 9.59686 73.8269 9.57966 73.921 9.57966H75.3505C76.5917 9.58826 77.3877 10.3625 77.1138 11.6615Z" fill="white"/>
<path d="M90.1419 6.43143C86.3756 6.43143 82.866 9.49392 82.2412 13.3134C81.6163 17.1501 83.7392 20.161 87.514 20.161C89.6968 20.161 91.6228 19.1545 93.0437 17.5717C93.1207 17.4856 93.1122 17.348 93.0351 17.2706L92.2562 16.5222C92.1706 16.4361 92.0336 16.4447 91.9566 16.5308C90.8524 17.7007 89.3373 18.5352 87.6681 18.5352C84.792 18.5352 83.2684 16.1437 83.8504 13.3048C84.4239 10.4402 87.146 8.02289 89.8509 8.02289C91.5201 8.02289 92.59 8.84873 93.1978 9.67457C93.2663 9.7606 93.3861 9.7864 93.4803 9.72619L94.5674 9.05519C94.6701 8.98637 94.7043 8.84873 94.6273 8.7455C93.6943 7.42071 92.008 6.43143 90.1419 6.43143Z" fill="white"/>
<path d="M108.126 6.629H106.997C106.894 6.629 106.808 6.73223 106.791 6.83546L105.045 15.0939C104.574 17.2273 102.357 18.5177 100.739 18.5177C98.6422 18.5177 97.5294 17.2531 97.9831 15.1111L99.7036 6.93009C99.7293 6.79245 99.6266 6.6376 99.4982 6.6376H98.3683C98.2656 6.6376 98.18 6.74083 98.1628 6.84406L96.3824 15.2573C95.7404 18.3198 98.043 20.1435 100.465 20.1435C102.854 20.1435 105.909 18.5263 106.586 15.2745L108.349 6.93869C108.366 6.78384 108.263 6.629 108.126 6.629Z" fill="white"/>
<path d="M120.615 6.629H111.285C111.182 6.629 111.096 6.73223 111.079 6.83546L110.84 8.04841C110.814 8.18605 110.908 8.40972 111.045 8.40972H114.614C114.751 8.40972 114.854 8.45273 114.82 8.59037L112.483 19.8596C112.457 19.9973 112.56 20.2554 112.688 20.2554H113.818C113.921 20.2554 114.007 20.0059 114.024 19.9027L116.395 8.59037C116.412 8.48714 116.506 8.40972 116.6 8.40972H120.358C120.461 8.40972 120.546 8.25487 120.563 8.16024L120.803 6.9731C120.855 6.82686 120.752 6.629 120.615 6.629Z" fill="white"/>
<path d="M13.7356 13.3393C13.7944 13.2933 13.7879 13.1948 13.801 13.1225C13.8271 13.0043 13.9121 12.9189 14.0101 12.84C14.1017 12.7678 14.2062 12.6955 14.2651 12.597C14.3239 12.4984 14.337 12.3539 14.252 12.2685C14.2062 12.2291 14.1474 12.2094 14.082 12.1963C13.7683 12.1109 13.4611 12.0386 13.1604 11.9072C12.8663 11.7758 12.5656 11.6247 12.2322 11.605C11.6635 11.5722 11.1275 11.9335 10.8138 12.413C11.1406 12.3802 11.4413 12.2094 11.755 12.1174C12.0688 12.0255 12.461 12.0255 12.6767 12.2685C12.0949 12.3276 11.6505 12.643 11.1341 12.8597C11.1864 12.886 11.2452 12.8992 11.304 12.9189C11.4936 12.9714 11.6635 12.9583 11.84 12.8794C11.9707 12.8138 12.0949 12.7349 12.2322 12.6955C12.3433 12.6627 12.5656 12.6495 12.6309 12.7743V12.7809C12.2387 12.9057 11.8727 13.1028 11.5589 13.3656C11.6962 13.4313 11.8466 13.4641 12.0034 13.4641C12.0688 13.4641 12.1407 13.451 12.1865 13.405C12.2453 13.3524 12.2322 13.2933 12.2061 13.2342C12.2714 13.221 12.3368 13.2013 12.4022 13.1882C12.4152 13.1882 12.4283 13.1816 12.4414 13.1882C12.4545 13.1948 12.4675 13.2079 12.4741 13.2276C12.5198 13.3327 12.5917 13.4247 12.6702 13.5101C12.4087 13.5626 12.1538 13.6218 11.8988 13.694C11.8662 13.7006 11.8335 13.7203 11.84 13.7531C11.84 13.7728 11.8662 13.786 11.8792 13.7926C12.2649 13.9831 12.7224 14.0093 13.1277 13.8714C13.2062 13.8451 13.2781 13.8123 13.3303 13.7466C13.3826 13.6874 13.4022 13.5889 13.35 13.5232C13.3042 13.4575 13.1996 13.4247 13.1996 13.3524L13.5461 13.3327C13.6049 13.3656 13.6833 13.3787 13.7356 13.3393Z" fill="#242424"/>
<path d="M6.76142 13.6219C7.14707 13.4511 7.12746 12.8139 6.9183 12.5183C6.77449 12.3146 6.44767 12.157 6.19928 12.2555C6.0424 12.3146 5.75479 12.6234 6.07508 12.6759C6.10777 12.6825 6.14045 12.6825 6.17313 12.6825C6.27772 12.6825 6.35615 12.7285 6.42152 12.8007C6.51303 12.8927 6.53918 12.9847 6.49996 13.0569C6.46074 13.1358 6.3823 13.1489 6.24503 13.1226C6.17313 13.1095 6.10123 13.0832 6.03586 13.0832C5.92474 13.0766 5.84631 13.1161 5.81362 13.2277C5.80709 13.2474 5.80055 13.2606 5.80055 13.2803C5.78748 13.3394 5.78094 13.4051 5.78748 13.4642C5.79401 13.5431 5.8267 13.6219 5.85938 13.6941C6.05547 14.0489 6.33654 14.3051 6.71566 14.4562C6.76796 14.4759 6.82025 14.489 6.87254 14.4956C6.93137 14.5021 6.9902 14.489 7.02288 14.4299L6.88561 14.1277C6.82678 14.0751 6.76142 14.0357 6.70913 13.9832C6.68298 13.9569 6.65683 13.9306 6.64376 13.9044C6.59147 13.7927 6.59801 13.6941 6.76142 13.6219Z" fill="#242424"/>
<path d="M14.8077 13.0634C15.1934 12.8269 15.3568 12.3342 15.3307 11.8809C15.3111 11.6379 15.2522 11.408 15.1672 11.1781C15.0888 10.9613 14.9842 10.7511 14.8862 10.5408C14.8796 10.5211 14.8666 10.5014 14.8535 10.4817C14.8404 10.4686 14.8273 10.462 14.8143 10.4554C14.7554 10.4357 14.6705 10.4686 14.6182 10.4883C14.6116 10.4883 14.5005 10.5343 14.5071 10.5474C14.6182 10.8824 14.7293 11.2109 14.8339 11.5459C14.9123 11.7824 14.9908 12.0386 14.9058 12.2685C14.8404 12.4393 14.7032 12.5707 14.6116 12.7284C14.3502 13.1751 14.5332 13.7466 14.7881 14.1933C15.0431 14.64 15.3764 15.0801 15.4156 15.5925C15.4222 15.6845 15.4156 15.7896 15.3437 15.8487C15.2849 15.8947 15.2065 15.9012 15.128 15.9012C14.7685 15.9078 14.4155 15.9078 14.056 15.9144C13.9645 15.9144 13.8599 15.9144 13.7946 15.8487C13.6965 15.7502 13.6181 15.5794 13.7031 15.4742C13.788 15.3626 13.9057 15.2706 13.9384 15.1392C13.8403 15.2837 13.6769 15.3691 13.5462 15.4874C13.4155 15.6056 13.4416 15.783 13.5004 15.9472C13.5658 16.1443 13.8076 16.1969 14.0103 16.2428C14.2129 16.2888 14.4482 16.4268 14.4221 16.6304C13.2717 16.6567 12.1801 17.4384 11.7813 18.5223C11.7617 18.1873 11.8467 17.5829 11.8924 17.2479C11.899 17.1888 11.8859 17.1428 11.8663 17.0968L10.3825 16.1049C9.61119 15.6122 8.89217 15.0275 8.25159 14.3641C8.31042 15.1261 8.06857 15.875 7.89209 16.6173C7.7156 17.3596 7.61101 18.1742 7.9313 18.8639C8.18623 19.4157 8.67647 19.8099 9.17325 20.1515C9.87919 20.631 10.6309 21.0383 11.4218 21.3667C12.1474 21.6624 12.9318 21.8791 13.7357 21.8923C14.592 21.912 15.0038 21.2551 15.0038 21.2551C15.1411 20.8018 15.1607 20.3091 15.0692 19.8493C15.0496 19.7376 14.5855 18.5223 14.5136 18.5946C14.762 18.3712 14.8404 17.9837 14.7032 17.6815C15.0692 17.3464 15.2261 16.8078 15.1084 16.3217C15.3764 16.2034 15.6771 16.0458 15.7555 15.7633C15.8274 15.5005 15.6706 15.2312 15.5333 14.9947C15.1934 14.3969 14.945 13.74 14.8077 13.0634Z" fill="#242424"/>
<path d="M18.5205 9.2403C18.1283 9.70671 17.4943 9.95633 16.8929 9.87094C17.2917 9.89064 17.6904 9.687 17.9192 9.35855C17.5531 9.64102 17.0302 9.91692 16.6576 9.64102C16.5465 9.55562 16.4681 9.43738 16.3896 9.31913C16.0563 8.78703 15.7164 8.24837 15.383 7.7097C16.0367 7.81481 16.5792 8.41259 16.6184 9.07607C16.6184 9.0498 16.6184 9.02352 16.6184 8.99724C16.6119 8.55711 16.4485 8.12355 16.1609 7.78853C16.5923 8.27464 16.8603 8.91842 16.8864 9.57533C16.9387 8.80017 16.906 7.99217 16.5465 7.30241C16.3439 6.95425 16.0301 6.65207 15.6641 6.48785C15.3438 6.34332 14.9516 6.32362 14.7032 6.04772C14.5986 5.92947 14.5333 5.77838 14.4548 5.64043C14.1541 5.12804 13.6181 4.79958 13.0625 4.59594C12.5069 4.3923 11.9186 4.28062 11.363 4.08355C11.363 4.08355 8.36277 2.5201 4.69578 4.65506C3.6434 5.27913 3.27081 6.7309 3.06164 7.94619C3.01589 8.19581 2.98321 8.44544 2.9113 8.6885C2.8394 8.91842 2.72828 9.12863 2.64331 9.35198C2.13346 10.7052 2.63677 12.2095 3.15969 13.5628C3.68261 14.916 4.23168 16.3875 3.80681 17.7736C4.30358 17.2218 4.25129 16.3875 4.21207 15.6452C4.17285 14.9029 4.25129 14.0292 4.86573 13.6219C4.93109 14.2657 5.76777 14.5153 6.06191 15.0868C6.12074 15.1985 6.15342 15.3167 6.23186 15.4153C6.44757 15.6715 6.85283 15.5926 7.10776 15.3627C6.97049 15.4415 6.76132 15.4284 6.62405 15.3299C6.42142 15.1985 6.3103 14.9686 6.17303 14.7715C5.81352 14.2788 5.21216 13.9635 5.11411 13.2869C5.0749 13.0307 5.14026 12.7679 5.25138 12.538C5.78738 11.441 6.95088 11.6709 7.45419 12.3541C7.46073 12.3672 7.46727 12.3738 7.4738 12.3869C7.49995 12.4198 7.51956 12.4526 7.53917 12.492C7.59146 12.584 7.63068 12.6891 7.65682 12.7942C7.66336 12.8139 7.6699 12.8402 7.6699 12.8599C7.67643 12.8862 7.68297 12.919 7.68297 12.9518C7.68297 12.9453 7.68297 12.9453 7.68297 12.9387C7.72219 13.1949 7.71565 13.4314 7.71565 13.4314L7.87907 13.3854C7.93136 13.3723 7.98365 13.3591 8.03594 13.346L8.08824 13.3329C8.1536 13.3131 8.21243 13.3 8.27779 13.2803C8.27779 12.6759 8.69613 12.1373 9.20598 11.822C9.88578 11.4015 10.7551 11.2504 11.5003 10.9877L12.3958 9.54905C12.5331 9.3257 12.3893 9.02352 12.1278 8.99724C11.1539 8.90528 10.1669 8.91185 9.21252 8.66222C8.98374 8.6031 9.11447 8.25494 9.34325 8.31406C10.4087 8.58996 11.5134 8.55055 12.5919 8.68193C13.3632 8.88557 14.0299 9.43738 14.7032 9.84466C15.3634 10.2454 16.2981 10.7972 17.089 10.541C17.1217 10.5278 17.1479 10.5081 17.1675 10.4884C17.4355 10.449 17.6904 10.3308 17.8538 10.1074C17.5531 10.2979 17.1479 10.2979 16.8472 10.1009C17.5139 10.1797 18.1937 9.82495 18.5205 9.2403Z" fill="#242424"/>
</svg>
