<svg width="1194" height="44" viewBox="0 0 1194 44" fill="none" xmlns="http://www.w3.org/2000/svg">
<rect width="1194" height="44" fill="black"/>
<path d="M0 0H1194V44H0V0Z" fill="#24262B"/>
<path opacity="0.35" d="M1155.5 19.9996C1155.5 18.8029 1156.47 17.8329 1157.67 17.8329H1174.33C1175.53 17.8329 1176.5 18.8029 1176.5 19.9996V25.9996C1176.5 27.1962 1175.53 28.1662 1174.33 28.1662H1157.67C1156.47 28.1662 1155.5 27.1962 1155.5 25.9996V19.9996Z" fill="white" stroke="#242424"/>
<path opacity="0.4" d="M1178 21V25C1178.8 24.6612 1179.33 23.8731 1179.33 23C1179.33 22.1269 1178.8 21.3388 1178 21Z" fill="white"/>
<path d="M1157 20.6663C1157 19.93 1157.6 19.333 1158.33 19.333H1173.67C1174.4 19.333 1175 19.93 1175 20.6663V25.333C1175 26.0694 1174.4 26.6663 1173.67 26.6663H1158.33C1157.6 26.6663 1157 26.0694 1157 25.333V20.6663Z" fill="white"/>
<path fill-rule="evenodd" clip-rule="evenodd" d="M1142.33 19.6073C1144.55 19.6074 1146.68 20.4588 1148.28 21.9856C1148.4 22.1035 1148.6 22.102 1148.72 21.9823L1149.87 20.8156C1149.93 20.7549 1149.97 20.6726 1149.97 20.5871C1149.96 20.5015 1149.93 20.4196 1149.87 20.3596C1145.65 16.3201 1139 16.3201 1134.79 20.3596C1134.73 20.4196 1134.69 20.5014 1134.69 20.587C1134.69 20.6726 1134.73 20.7549 1134.79 20.8156L1135.94 21.9823C1136.06 22.1022 1136.26 22.1037 1136.38 21.9856C1137.98 20.4587 1140.11 19.6073 1142.33 19.6073ZM1142.33 23.4029C1143.55 23.4028 1144.72 23.8553 1145.62 24.6725C1145.75 24.7885 1145.94 24.786 1146.06 24.6669L1147.21 23.5002C1147.27 23.439 1147.31 23.356 1147.31 23.2697C1147.3 23.1835 1147.27 23.1012 1147.21 23.0412C1144.46 20.4848 1140.2 20.4848 1137.45 23.0412C1137.39 23.1012 1137.36 23.1835 1137.36 23.2698C1137.36 23.3561 1137.39 23.4391 1137.45 23.5002L1138.6 24.6669C1138.72 24.786 1138.92 24.7885 1139.04 24.6725C1139.94 23.8559 1141.11 23.4034 1142.33 23.4029ZM1144.64 25.9564C1144.64 26.0429 1144.61 26.1263 1144.55 26.1869L1142.55 28.2026C1142.49 28.2619 1142.41 28.2952 1142.33 28.2952C1142.25 28.2952 1142.17 28.2619 1142.11 28.2026L1140.11 26.1869C1140.05 26.1263 1140.01 26.0429 1140.02 25.9564C1140.02 25.8699 1140.06 25.7879 1140.12 25.7299C1141.4 24.6511 1143.26 24.6511 1144.54 25.7299C1144.6 25.788 1144.64 25.8699 1144.64 25.9564Z" fill="white"/>
<path fill-rule="evenodd" clip-rule="evenodd" d="M1128.67 17.6663H1127.67C1127.11 17.6663 1126.67 18.114 1126.67 18.6663V27.3329C1126.67 27.8852 1127.11 28.3329 1127.67 28.3329H1128.67C1129.22 28.3329 1129.67 27.8852 1129.67 27.3329V18.6663C1129.67 18.114 1129.22 17.6663 1128.67 17.6663ZM1123 19.9993H1124C1124.55 19.9993 1125 20.447 1125 20.9993V27.3326C1125 27.8849 1124.55 28.3326 1124 28.3326H1123C1122.45 28.3326 1122 27.8849 1122 27.3326V20.9993C1122 20.447 1122.45 19.9993 1123 19.9993ZM1119.33 22.3332H1118.33C1117.78 22.3332 1117.33 22.781 1117.33 23.3332V27.3332C1117.33 27.8855 1117.78 28.3332 1118.33 28.3332H1119.33C1119.89 28.3332 1120.33 27.8855 1120.33 27.3332V23.3332C1120.33 22.781 1119.89 22.3332 1119.33 22.3332ZM1114.67 24.3333H1113.67C1113.11 24.3333 1112.67 24.781 1112.67 25.3333V27.3333C1112.67 27.8856 1113.11 28.3333 1113.67 28.3333H1114.67C1115.22 28.3333 1115.67 27.8856 1115.67 27.3333V25.3333C1115.67 24.781 1115.22 24.3333 1114.67 24.3333Z" fill="white"/>
<path d="M37.3207 28.2568C40.0087 28.2568 41.6054 26.1548 41.6054 22.5952C41.6054 21.2549 41.3491 20.127 40.8583 19.2554C40.1479 17.9004 38.9247 17.168 37.3793 17.168C35.0795 17.168 33.4536 18.7134 33.4536 20.8813C33.4536 22.9175 34.9184 24.397 36.9326 24.397C38.1703 24.397 39.1738 23.8184 39.6718 22.8149H39.6938C39.6938 22.8149 39.7231 22.8149 39.7304 22.8149C39.7451 22.8149 39.7963 22.8149 39.7963 22.8149C39.7963 25.2319 38.8808 26.6748 37.3354 26.6748C36.4272 26.6748 35.7241 26.1768 35.4824 25.3784H33.6C33.915 27.1143 35.3871 28.2568 37.3207 28.2568ZM37.3867 22.8955C36.1708 22.8955 35.3066 22.0312 35.3066 20.8228C35.3066 19.6436 36.2148 18.7427 37.394 18.7427C38.5732 18.7427 39.4814 19.6582 39.4814 20.8521C39.4814 22.0312 38.5952 22.8955 37.3867 22.8955Z" fill="white"/>
<path d="M44.6965 28.1543C45.3923 28.1543 45.8684 27.6562 45.8684 26.9971C45.8684 26.3306 45.3923 25.8398 44.6965 25.8398C44.008 25.8398 43.5246 26.3306 43.5246 26.9971C43.5246 27.6562 44.008 28.1543 44.6965 28.1543ZM44.6965 22.6611C45.3923 22.6611 45.8684 22.1704 45.8684 21.5112C45.8684 20.8447 45.3923 20.354 44.6965 20.354C44.008 20.354 43.5246 20.8447 43.5246 21.5112C43.5246 22.1704 44.008 22.6611 44.6965 22.6611Z" fill="white"/>
<path d="M52.7242 28.0005H54.5332V26.0303H55.9615V24.4336H54.5332V17.4316H51.8672C49.9995 20.2441 48.5127 22.5952 47.5606 24.3457V26.0303H52.7242V28.0005ZM49.3111 24.3677C50.5415 22.1997 51.6402 20.4639 52.6509 18.9697H52.7535V24.4775H49.3111V24.3677Z" fill="white"/>
<path d="M59.9901 28.0005H61.8797V17.4316H59.9974L57.2362 19.3652V21.1816L59.8656 19.3359H59.9901V28.0005Z" fill="white"/>
</svg>
